# xmcd
#
# Track frame offsets:
# 225
# 15480
# 28698
# 47438
# 61524
# 77348
# 93018
# 111024
# 124904
# 135871
# 147747
# 161336
#
# Disc length: 2670 seconds
#
#
# Revision: 0
# Processed by: cddbd v1.4PL0 Copyright (c) Steve Scherf et al.
# Submitted via: FreeRIP 2.52 
#
DISCID=850a6b0c
DTITLE=Emanuel - Vem ser feliz comingo
DYEAR=1900
DGENRE=Latin
TTITLE0=Vem ser feliz comigo
TTITLE1=Vamos ao Ceu
TTITLE2=So Contigo sou feliz
TTITLE3=So quero o teu carinho
TTITLE4=Ja nao ha rosas
TTITLE5=Ela roubou o meu coracao
TTITLE6=Meu anjo espera por mim
TTITLE7=Eu comfesso o meu amor
TTITLE8=O amor nao tem juizo
TTITLE9=Sedutore e perigosa
TTITLE10=A marcha do camionista
TTITLE11=Mix
EXTD=
EXTT0=
EXTT1=
EXTT2=
EXTT3=
EXTT4=
EXTT5=
EXTT6=
EXTT7=
EXTT8=
EXTT9=
EXTT10=
EXTT11=
PLAYORDER=
